<?xml version="1.0" encoding="UTF-8"?>
<!DOCTYPE svg PUBLIC "-//W3C//DTD SVG 1.1//EN" "http://www.w3.org/Graphics/SVG/1.1/DTD/svg11.dtd">
<!-- Creator: CorelDRAW X8 -->
<svg xmlns="http://www.w3.org/2000/svg" xml:space="preserve" width="185px" height="185px" version="1.1" style="shape-rendering:geometricPrecision; text-rendering:geometricPrecision; image-rendering:optimizeQuality; fill-rule:evenodd; clip-rule:evenodd"
viewBox="0 0 185 185"
 xmlns:xlink="http://www.w3.org/1999/xlink">
 <defs>
  <style type="text/css">
   <![CDATA[
    .fil0 {fill:#FEFEFE}
    .fil1 {fill:#FEFEFE;fill-rule:nonzero}
   ]]>
  </style>
 </defs>
 <g id="Camada_x0020_1">
  <metadata id="CorelCorpID_0Corel-Layer"/>
  <g id="_2323873411568">
   <path class="fil0" d="M70 25c-7,-4 -13,-6 -21,-1 -7,4 -8,10 -8,20 -27,5 -34,34 -20,51 8,9 15,11 31,11l84 0c8,0 12,0 18,-3 5,-3 9,-6 12,-10 6,-9 7,-22 1,-33 -2,-5 -6,-8 -10,-11 -8,-3 -8,-3 -16,-5 -1,-19 -11,-33 -27,-37 -13,-4 -27,-1 -36,9 -2,3 -6,7 -8,9z"/>
   <g>
    <path class="fil1" d="M40 140c-1,4 -7,7 -6,2 0,-5 1,-9 3,-16l-6 0 -3 13c-2,12 10,9 14,1l-2 0zm25 0c-4,7 -14,6 -18,0 -3,-5 1,-14 5,-18 2,-2 3,-2 5,-2 1,0 2,0 2,2 0,1 -1,2 -1,3l3 5c2,-3 2,-6 2,-8 0,-3 -1,-4 -3,-5 -3,-1 -6,-2 -9,0 -2,0 -4,2 -6,4 -5,6 -8,18 -2,23 6,6 20,4 24,-4l-2 0zm20 0c-1,4 -7,7 -6,2 0,-2 1,-5 1,-8 2,-9 -5,-10 -9,-5l2 -11 -6 0 -5 29 5 0 3 -15c2,-3 6,-6 5,-1 0,3 -1,6 -2,10 -1,8 10,8 14,-1l-2 0zm21 -9c-1,1 -3,1 -4,2 0,-1 -1,-2 -1,-3 -2,-5 -8,-5 -12,-2 -3,2 -6,6 -6,10 -1,4 1,7 5,9 4,2 12,-2 13,-12 2,0 4,-1 5,-3l0 -1zm-10 5c-1,7 -4,9 -6,8 -3,-2 -1,-11 1,-14 2,-3 5,-1 5,3 0,-1 -1,-1 -1,-2l-3 3c2,1 3,2 4,2 0,0 0,0 0,0zm21 -10l-7 14 0 -14 -5 0 0 21 5 0c3,-6 7,-15 10,-21l-3 0zm18 14c-2,3 -6,5 -9,4 -2,-1 -2,-3 -2,-5 3,0 7,-1 8,-5 2,-2 2,-5 0,-7 -3,-2 -8,-1 -11,4 -4,6 -4,16 4,16 4,0 8,-1 11,-7l-1 0zm-11 -4c0,-2 1,-4 2,-5 1,-2 3,-3 4,-3 1,1 0,9 -6,9 0,0 0,0 0,-1zm31 4c-1,4 -6,7 -5,2 1,-4 2,-9 3,-16l-6 0c-2,14 -2,14 -3,15 -1,3 -5,6 -5,1 1,-4 2,-9 4,-16l-6 0 -3 13c-1,10 6,10 11,4 1,7 9,4 12,-3l-2 0z"/>
    <g>
     <path class="fil0" d="M28 111c0,0 0,0 0,1 1,1 1,1 3,0 2,-1 5,-1 8,0 4,2 5,5 5,5 1,0 2,-1 2,-1 0,-1 0,-1 -1,-2 0,0 0,0 0,0 -2,-3 -4,-4 -7,-5 -2,0 -3,0 -4,0 -1,0 -1,0 -1,0 -1,0 -1,0 -2,0 0,1 -1,1 -1,1 0,0 0,0 0,0 -1,0 -2,0 -2,1z"/>
     <path class="fil0" d="M30 114c0,1 0,0 0,1 1,2 1,0 3,0 3,0 5,0 6,2 2,1 1,1 2,2 0,0 1,-1 2,-1 0,-1 0,-1 -1,-1 -1,-2 -2,-3 -4,-4 -2,0 -3,-1 -5,0 0,0 -3,1 -3,1z"/>
     <path class="fil0" d="M33 119c0,0 1,0 1,0 1,-1 3,0 3,1 1,1 1,1 1,0 1,0 1,0 1,-1 0,0 -1,-2 -3,-2 -1,-1 -2,-1 -3,0 -1,0 -1,0 -1,1 0,0 0,0 0,1 0,0 1,0 1,0z"/>
     <path class="fil0" d="M32 122c0,1 1,2 2,3 2,0 3,-1 3,-3 0,0 0,0 -1,-1 -1,-2 -3,-1 -4,1z"/>
    </g>
   </g>
   <g>
    <path class="fil0" d="M84 172c-1,8 8,8 8,-1l-1 -11c0,0 -8,10 -7,12z"/>
    <path class="fil0" d="M106 174c-1,7 8,8 9,-1l0 -11c-1,0 -9,10 -9,12z"/>
    <path class="fil0" d="M99 164c-1,5 6,6 6,-1l0 -8c-1,1 -6,7 -6,9z"/>
    <path class="fil0" d="M74 163c-1,5 6,5 6,-1l0 -8c0,0 -6,7 -6,9z"/>
    <path class="fil0" d="M63 173c-1,5 6,6 6,0l0 -8c0,0 -6,7 -6,8z"/>
   </g>
  </g>
 </g>
</svg>
